HIERARCHY
ROOT root
{
	OFFSET	0	13.1	24.9
	CHANNELS 6  Xposition Yposition Zposition Xrotation Yrotation Zrotation
	JOINT spine_1
	{
		OFFSET	0	9.99999	0
		CHANNELS 3  Xrotation Yrotation Zrotation
		JOINT spine_2
		{
			OFFSET	0	112	-10
			CHANNELS 3  Xrotation Yrotation Zrotation
			JOINT spine_3
			{
				OFFSET	0	206.5	19.3
				CHANNELS 3  Xrotation Yrotation Zrotation
				JOINT spine_4
				{
					OFFSET	0	110.4	14.6
					CHANNELS 3  Xrotation Yrotation Zrotation
					JOINT neck_1
					{
						OFFSET	0	71.8	-50.3
						CHANNELS 3  Xrotation Yrotation Zrotation
						JOINT neck_2
						{
							OFFSET	0	86.2	-25.8
							CHANNELS 3  Xrotation Yrotation Zrotation
							JOINT head_ee
							{
								OFFSET	0	179.8	-8.7
								CHANNELS 3  Xrotation Yrotation Zrotation
								End Site
								{
									OFFSET	1	0	0
								}
							}
						}
					}
					JOINT left_clavicle
					{
						OFFSET	-43.2	22.4	-70.8
						CHANNELS 3  Xrotation Yrotation Zrotation
						JOINT left_shoulder
						{
							OFFSET	-93.9	-5.79999	48.7
							CHANNELS 3  Xrotation Yrotation Zrotation
							JOINT left_elbow
							{
								OFFSET	-291.4	-30.8	15.2
								CHANNELS 3  Xrotation Yrotation Zrotation
								JOINT left_lowarm_twist
								{
									OFFSET	-110.7	-3.89999	13.6
									CHANNELS 3  Xrotation Yrotation Zrotation
									JOINT left_hand
									{
										OFFSET	-110.7	-3.89999	13.6
										CHANNELS 3  Xrotation Yrotation Zrotation
										JOINT left_ee
										{
											OFFSET	-80.8	-5.10001	12.1
											CHANNELS 3  Xrotation Yrotation Zrotation
											End Site
											{
												OFFSET	1	0	0
											}
										}
									}
								}
							}
						}
					}
					JOINT right_clavicle
					{
						OFFSET	43.2	22.4	-70.8
						CHANNELS 3  Xrotation Yrotation Zrotation
						JOINT right_shoulder
						{
							OFFSET	93.9	-5.79999	48.7
							CHANNELS 3  Xrotation Yrotation Zrotation
							JOINT right_elbow
							{
								OFFSET	291.4	-30.8	15.2
								CHANNELS 3  Xrotation Yrotation Zrotation
								JOINT right_lowarm_twist
								{
									OFFSET	110.7	-3.89999	13.6
									CHANNELS 3  Xrotation Yrotation Zrotation
									JOINT right_hand
									{
										OFFSET	110.7	-3.89999	13.6
										CHANNELS 3  Xrotation Yrotation Zrotation
										JOINT right_ee
										{
											OFFSET	80.8	-5.10001	12.1
											CHANNELS 3  Xrotation Yrotation Zrotation
											End Site
											{
												OFFSET	1	0	0
											}
										}
									}
								}
							}
						}
					}
				}
			}
		}
	}
	JOINT left_hip
	{
		OFFSET	-82.8	-127.5	0.300001
		CHANNELS 3  Xrotation Yrotation Zrotation
		JOINT left_knee
		{
			OFFSET	-28.2	-396.7	2.2
			CHANNELS 3  Xrotation Yrotation Zrotation
			JOINT left_ankle
			{
				OFFSET	-11.7	-411.3	35.4
				CHANNELS 3  Xrotation Yrotation Zrotation
				JOINT left_toes
				{
					OFFSET	0	-60	-88.6
					CHANNELS 3  Xrotation Yrotation Zrotation
					JOINT left_foot_ee
					{
						OFFSET	-22.5	-16.5	-42.2
						CHANNELS 3  Xrotation Yrotation Zrotation
						End Site
						{
							OFFSET	1	0	0
						}
					}
				}
			}
		}
	}
	JOINT right_hip
	{
		OFFSET	82.8	-127.5	0.300001
		CHANNELS 3  Xrotation Yrotation Zrotation
		JOINT right_knee
		{
			OFFSET	28.2	-396.7	2.2
			CHANNELS 3  Xrotation Yrotation Zrotation
			JOINT right_ankle
			{
				OFFSET	11.7	-411.3	35.4
				CHANNELS 3  Xrotation Yrotation Zrotation
				JOINT right_toes
				{
					OFFSET	0	-60	-88.6
					CHANNELS 3  Xrotation Yrotation Zrotation
					JOINT right_foot_ee
					{
						OFFSET	22.5	-16.5	-42.2
						CHANNELS 3  Xrotation Yrotation Zrotation
						End Site
						{
							OFFSET	1	0	0
						}
					}
				}
			}
		}
	}
}
MOTION
Frames: 15
Frame Time: 0.02
3780.26 666.723 -288.011 -145.053 -38.7321 -153.761 11.8508 0.157755 -1.05156 11.8514 0.224346 -1.03939 11.8459 0.229583 -1.03825 11.8444 0.0627395 -1.06147 -21.5787 8.60803 2.71299 -21.9408 15.3078 6.40598 -0.0 0.0 -0.0 4.82354 20.7776 9.44118 -26.6407 -21.9055 46.6854 2.32566 -49.0347 1.06083 -51.5657 -4.25636 4.76227 0.975567 -1.74697 5.81393 -0.0 0.0 -0.0 11.2805 4.77266 -22.5764 -83.1488 58.8296 -32.1211 0.201147 5.69044 -0.00999689 -69.1817 6.44164 -5.29416 0.903599 28.6048 6.28575 0.0 0.0 0.0 37.9598 -0.796327 -2.12088 -8.10937 0.247972 1.2188 41.1249 23.5913 -5.22943 -2.68782 0.0 0.0 -0.0 0.0 -0.0 59.6404 6.71458 -4.5868 -34.0476 0.132125 -5.14742 15.6066 26.2338 2.60976 25.7383 -0.0 -0.0 0.0 0.0 0.0 
3783.06 662.605 -280.34 -144.018 -38.0391 -152.987 12.3208 0.111713 -0.893737 12.3213 0.168356 -0.884819 12.3175 0.16552 -0.885353 12.3164 0.0236238 -0.900382 -20.9801 7.66285 2.19269 -21.2587 13.7072 5.40414 -0.0 0.0 -0.0 3.12796 20.6036 6.94975 -26.5678 -23.0765 48.0329 2.44002 -50.3904 1.14807 -49.7902 -4.04722 4.67188 0.683319 2.29002 5.50347 -0.0 0.0 -0.0 11.0399 6.47524 -22.0978 -77.6026 59.5648 -38.8969 0.195677 5.53666 -0.00946182 -68.0273 6.29455 -5.28019 0.619664 27.219 7.50375 0.0 0.0 0.0 37.0671 -0.399906 -2.86326 -3.66926 0.133588 0.547176 41.8783 21.2848 -5.23152 -1.35791 0.0 0.0 -0.0 0.0 -0.0 57.3182 4.77653 -5.27204 -25.0281 -0.202175 -3.80503 15.3199 25.7563 2.55145 27.8672 -0.0 -0.0 0.0 0.0 0.0 
3790.38 665.204 -274.062 -143.414 -39.1495 -152.006 12.3408 0.111312 -0.87578 12.3412 0.166813 -0.866923 12.3375 0.163731 -0.86751 12.3365 0.0246746 -0.88248 -21.8715 8.16968 1.37694 -22.2497 15.1086 5.01686 -0.0 0.0 -0.0 3.11412 19.9454 6.91316 -27.3603 -24.8736 49.7114 2.33339 -49.1288 1.06667 -51.4269 -4.23991 4.75544 -0.0475434 8.97819 3.42042 -0.0 0.0 -0.0 10.6906 3.24039 -21.2478 -70.5314 54.2881 -44.1286 0.183576 5.19622 -0.00833011 -67.7526 6.2596 -5.27643 0.616044 26.3997 7.17408 0.0 0.0 0.0 36.2591 0.0455975 -2.49039 -2.24782 0.0860037 0.334222 41.7004 20.8918 -5.20521 -2.31058 0.0 0.0 -0.0 0.0 -0.0 55.1156 3.77367 -5.06392 -19.2643 -0.303667 -2.92676 13.0925 27.5564 2.25174 30.4108 -0.0 -0.0 0.0 0.0 0.0 
3803.74 665.026 -267.469 -142.495 -39.7129 -150.751 12.4471 0.0266417 -1.0843 12.4478 0.0955802 -1.08041 12.4441 0.0897223 -1.08091 12.4425 -0.0821027 -1.08151 -19.4306 7.44207 0.0797795 -19.7154 14.2965 3.15168 -0.0 0.0 -0.0 2.81958 21.6957 6.53293 -27.1278 -23.4973 50.0677 2.41234 -50.0693 1.1268 -51.3803 -4.23439 4.75314 0.649845 -0.762947 4.02947 -0.0 0.0 -0.0 9.88527 2.97221 -19.5309 -75.4428 58.4079 -40.176 0.185251 5.24336 -0.00848243 -68.7952 6.39236 -5.28982 0.474554 28.0294 8.78509 0.0 0.0 0.0 35.5262 -1.93792 -2.13791 -1.52338 0.0597208 0.226151 41.9 19.8184 -5.19597 0.315597 -0.0 -0.0 -0.0 0.0 -0.0 53.5442 3.39059 -4.90352 -16.7296 -0.320239 -2.53824 12.6398 27.9462 2.18908 27.2087 -0.0 -0.0 0.0 0.0 0.0 
3808.89 662.843 -262.952 -142.028 -40.5522 -150.229 12.3053 0.0363068 -1.03865 12.3059 0.102322 -1.03423 12.3024 0.0992739 -1.03453 12.3009 -0.0653479 -1.03723 -19.145 6.50922 -0.113598 -19.3596 12.5967 2.54292 -0.0 0.0 -0.0 3.03815 21.8712 6.84992 -27.7252 -23.9137 49.0127 2.38923 -49.7977 1.10911 -50.1592 -4.09046 4.69121 1.43184 -5.90813 7.17158 -0.0 0.0 -0.0 9.9838 2.90204 -19.7363 -76.6756 58.5617 -39.5844 0.180094 5.09819 -0.00801768 -68.5233 6.35772 -5.28656 0.781866 27.2087 6.45457 0.0 0.0 0.0 35.6382 -0.78676 -2.18465 -0.750058 0.0301572 0.111154 41.7886 18.8425 -5.16337 1.20472 -0.0 -0.0 -0.0 0.0 -0.0 52.0978 1.59126 -4.30001 -13.9978 -0.318844 -2.11915 15.1741 28.7713 2.62284 25.9452 -0.0 -0.0 0.0 0.0 0.0 
3810.67 661.917 -257.633 -141.476 -40.8905 -149.554 12.2413 -0.113889 -1.00488 12.2418 -0.0497188 -1.01009 12.2411 -0.0516383 -1.00999 12.2398 -0.210491 -0.989163 -18.9397 5.67526 0.903144 -19.0806 10.4546 3.11885 -0.0 0.0 -0.0 2.89608 22.2947 6.65879 -28.002 -26.3994 49.1962 2.28298 -48.509 1.02873 -49.4309 -4.00524 4.6528 0.962862 -6.02121 3.94519 -0.0 0.0 -0.0 9.76745 3.38045 -19.2937 -75.7109 59.685 -40.1036 0.248372 7.01436 -0.0152223 -71.1184 6.68883 -5.31089 1.06571 27.6031 4.80665 0.0 0.0 0.0 35.4954 -1.74834 -2.25787 -0.409773 0.0166561 0.0606781 41.6095 18.5647 -5.14145 1.14907 -0.0 -0.0 -0.0 0.0 -0.0 51.6375 -0.0557822 -4.31306 -14.0061 -0.318879 -2.12042 15.7225 28.7118 2.70795 24.5688 -0.0 -0.0 0.0 0.0 0.0 
3817.14 660.783 -254.611 -140.616 -40.9851 -148.933 12.4364 -0.114327 -1.08274 12.4371 -0.0452024 -1.08782 12.436 -0.0509703 -1.08756 12.4345 -0.222081 -1.06587 -18.7678 5.56059 0.207696 -18.9133 10.5964 2.41009 -0.0 0.0 -0.0 2.71175 23.3031 6.42966 -27.5373 -26.1568 50.5809 2.18059 -47.2018 0.952811 -49.1859 -3.97669 4.63965 1.30269 -7.62774 5.56579 -0.0 0.0 -0.0 9.75786 4.04133 -19.2884 -74.0362 59.3296 -42.3158 0.210832 5.9625 -0.0109801 -69.5047 6.48283 -5.29754 1.00911 28.442 5.5411 0.0 0.0 0.0 35.3183 -2.22853 -2.06767 0.568704 -0.0238355 -0.0840159 41.8687 17.986 -5.15179 3.32257 -0.0 -0.0 -0.0 0.0 -0.0 51.7488 -1.21744 -4.0699 -14.3643 -0.320192 -2.17536 14.9848 28.4858 2.58321 24.9886 -0.0 -0.0 0.0 0.0 0.0 
3819.39 661.509 -242.673 -140.953 -40.831 -149.242 12.3196 -0.130171 -1.00895 12.3202 -0.0657084 -1.01518 12.3197 -0.069032 -1.01496 12.3183 -0.228452 -0.991328 -18.1477 5.50273 -0.110248 -18.2869 10.6458 2.03116 -0.0 0.0 -0.0 2.61987 22.5449 6.27718 -28.3422 -26.6649 50.4601 1.94188 -43.8843 0.782354 -47.7716 -3.81296 4.56131 1.81469 -11.9988 7.14721 -0.0 0.0 -0.0 9.11673 4.65165 -17.9449 -70.7582 60.0062 -44.2481 0.271746 7.66695 -0.0182089 -69.1624 6.43918 -5.29395 0.71635 28.1956 7.30411 0.0 0.0 0.0 34.9904 -2.21502 -2.69881 -1.07422 0.0427385 0.15931 42.0304 17.2286 -5.15041 5.12622 -0.0 -0.0 -0.0 0.0 -0.0 50.8533 -1.88733 -4.66778 -14.3754 -0.320227 -2.17707 15.0528 27.9491 2.57666 24.4454 -0.0 -0.0 0.0 0.0 0.0 
3822.31 658.813 -236.385 -140.365 -41.3819 -148.623 12.4152 -0.123428 -0.959789 12.4157 -0.0621064 -0.965697 12.4153 -0.0668776 -0.965378 12.414 -0.218495 -0.942704 -18.7858 2.67332 0.626624 -18.8142 4.81607 1.64246 -0.0 0.0 -0.0 2.32765 23.0179 5.88697 -29.0264 -25.7186 51.4472 2.10629 -46.2109 0.898726 -47.6988 -3.80458 4.55717 2.03346 -10.9693 9.09121 -0.0 0.0 -0.0 9.77335 7.32061 -19.357 -69.5158 60.2178 -46.0254 0.294705 8.30602 -0.0213988 -70.2065 6.57237 -5.30406 0.952918 28.7082 6.01695 0.0 0.0 0.0 35.0451 0.306445 -3.03585 -1.03493 0.0412282 0.15347 41.4521 13.8453 -5.0436 6.6517 -0.0 -0.0 -0.0 0.0 -0.0 50.6798 -2.59817 -4.79658 -14.4699 -0.320513 -2.19156 13.3487 26.5151 2.26442 24.4954 -0.0 -0.0 0.0 0.0 0.0 
3822.54 654.039 -226.29 -140.403 -42.0802 -148.421 12.3947 -0.091476 -0.795203 12.3951 -0.0406914 -0.799412 12.3946 -0.0443502 -0.799218 12.3938 -0.170011 -0.782185 -19.3903 1.94585 0.302358 -19.4074 3.59254 1.07184 -0.0 0.0 -0.0 1.79812 23.2822 5.16731 -29.5385 -26.278 51.9094 1.97226 -44.3286 0.803498 -44.4884 -3.44065 4.36406 2.09353 -16.1018 7.18711 -0.0 0.0 -0.0 9.89735 12.218 -19.5637 -59.1088 57.3412 -56.482 0.3738 10.4908 -0.0343173 -69.6387 6.49992 -5.29887 1.60343 28.5861 1.82776 0.0 0.0 0.0 34.6577 -0.233962 -3.57505 -1.00772 0.0401797 0.149426 41.3209 14.2073 -5.0374 14.6965 -0.0 -0.0 -0.0 0.0 -0.0 50.4835 -4.89556 -4.79848 -16.2839 -0.321376 -2.46988 11.4381 25.5349 1.93521 24.7313 -0.0 -0.0 0.0 0.0 0.0 
3826.76 654.165 -221.093 -140.578 -42.3376 -148.606 12.442 -0.0649097 -0.755751 12.4423 -0.0166892 -0.758349 12.4416 -0.02078 -0.758248 12.4409 -0.140267 -0.745452 -20.4683 2.47104 0.546821 -20.497 4.49233 1.5587 -0.0 0.0 -0.0 0.94662 22.0701 3.89546 -28.3636 -25.7503 55.1694 1.7039 -40.163 0.622955 -44.3939 -3.43011 4.35808 1.91218 -16.8939 5.6057 -0.0 0.0 -0.0 10.3765 16.6959 -20.4525 -50.4559 54.0746 -63.1957 0.38576 10.8187 -0.0365286 -71.9823 6.79921 -5.31564 3.36274 28.5684 -9.36059 0.0 0.0 0.0 34.964 0.537772 -3.37907 -3.4774 0.127475 0.518367 41.0874 12.5516 -4.99555 17.0136 -0.0 -0.0 -0.0 0.0 -0.0 49.9519 -4.25788 -4.89612 -16.1828 -0.321559 -2.45435 8.74825 23.9988 1.47162 28.1933 -0.0 -0.0 0.0 0.0 0.0 
3831.63 657.39 -221.186 -139.535 -43.2506 -147.308 12.4379 -0.0486878 -0.769094 12.4383 0.00034884 -0.770633 12.4373 -0.0037486 -0.770624 12.4365 -0.125404 -0.760362 -20.5036 1.57649 0.224634 -20.5161 2.92837 0.87948 -0.0 0.0 -0.0 1.94747 21.1553 5.25813 -31.5806 -27.2171 53.5781 1.5746 -37.9519 0.541469 -43.1287 -3.28988 4.2762 2.34733 -20.873 6.64944 -0.0 0.0 -0.0 10.6548 21.3551 -20.7714 -44.6114 49.5417 -68.9165 0.30668 8.63853 -0.0231631 -68.6533 6.37428 -5.28814 2.81753 28.6056 -5.86416 0.0 0.0 0.0 34.6816 1.9265 -2.81126 -2.83844 0.106418 0.422566 39.2031 12.1396 -4.8246 23.3091 -0.0 -0.0 -0.0 0.0 -0.0 49.9716 -4.58247 -4.5098 -16.6677 -0.320429 -2.52875 5.30764 21.7019 0.883049 28.9466 -0.0 -0.0 0.0 0.0 0.0 
3840.78 657.663 -217.218 -140.612 -44.4901 -147.842 12.2042 -0.0458801 -0.868937 12.2046 0.00950348 -0.870095 12.2033 0.00843263 -0.870106 12.2022 -0.129085 -0.86052 -20.82 2.39877 -0.448416 -20.8554 4.8486 0.619402 -0.0 0.0 -0.0 2.11939 21.4839 5.52245 -32.6098 -29.1667 54.2672 1.42336 -35.1853 0.451335 -42.722 -3.24519 4.24923 3.1201 -26.1135 9.10402 -0.0 0.0 -0.0 11.0614 26.5508 -21.1884 -40.7711 46.8391 -73.1251 0.338044 9.50658 -0.0281089 -69.4463 6.47537 -5.29694 3.28428 28.4554 -8.91965 0.0 0.0 0.0 34.2387 3.37077 -2.9887 -4.94733 0.171847 0.739585 39.6668 9.11462 -4.84119 32.6512 -0.0 -0.0 -0.0 0.0 -0.0 48.9099 -7.17902 -3.17796 -19.0785 -0.305465 -2.89832 2.66234 23.6334 0.455987 30.9154 -0.0 -0.0 0.0 0.0 0.0 
3845.64 658.927 -215.558 -140.234 -44.9171 -147.681 12.2366 -0.223433 -0.843092 12.237 -0.169334 -0.8556 12.2383 -0.17093 -0.855282 12.2375 -0.303857 -0.817557 -21.0698 3.17389 -0.454553 -21.1322 6.34545 0.964382 -0.0 0.0 -0.0 2.42117 20.7786 5.92481 -33.8795 -30.4012 55.3513 1.14304 -29.5188 0.301148 -42.7244 -3.24545 4.24939 3.07669 -25.8999 8.93348 -0.0 0.0 -0.0 10.6257 25.2376 -20.3483 -40.7217 44.5799 -72.9054 0.344516 9.68517 -0.0291878 -67.9598 6.28596 -5.27928 3.44054 28.284 -10.0139 0.0 0.0 0.0 32.9055 4.03711 -2.25804 -3.49691 0.128101 0.521296 36.422 9.11979 -4.54391 36.3223 -0.0 -0.0 -0.0 0.0 -0.0 49.0212 -8.97281 -2.98907 -19.549 -0.300732 -2.97034 -2.25538 18.0227 -0.37077 34.0815 -0.0 -0.0 0.0 0.0 0.0 
3849.81 657.578 -210.868 -141.292 -45.051 -148.634 12.0799 -0.176169 -0.807325 12.0802 -0.124441 -0.816898 12.081 -0.123716 -0.817008 12.0801 -0.251191 -0.787219 -21.4694 5.8051 -2.01228 -21.7013 12.1683 0.734565 -0.0 0.0 -0.0 2.05615 20.3246 5.37028 -34.4707 -31.8167 56.5758 0.948515 -25.1669 0.211735 -41.0538 -3.06392 4.13531 2.98147 -28.5723 6.9248 -0.0 0.0 -0.0 10.6406 23.6727 -20.5371 -42.0224 43.9825 -71.2837 0.372454 10.4539 -0.0340727 -68.9757 6.41537 -5.29189 3.57029 25.6659 -12.2809 0.0 0.0 0.0 32.4607 4.95169 -2.08545 -5.33543 0.182614 0.798173 36.6258 11.8433 -4.58249 38.6959 -0.0 -0.0 -0.0 0.0 -0.0 48.6108 -6.82064 -2.23576 -21.7268 -0.271124 -3.30319 -1.08267 20.7595 -0.181994 34.1968 -0.0 -0.0 0.0 0.0 0.0 
